<?xml version="1.0" encoding="UTF-8" standalone="no"?><!DOCTYPE svg PUBLIC "-//W3C//DTD SVG 1.1//EN" "http://www.w3.org/Graphics/SVG/1.1/DTD/svg11.dtd"><svg width="100%" height="100%" viewBox="0 0 101 31" version="1.1" xmlns="http://www.w3.org/2000/svg" xmlns:xlink="http://www.w3.org/1999/xlink" xml:space="preserve" xmlns:serif="http://www.serif.com/" style="fill-rule:evenodd;clip-rule:evenodd;stroke-linejoin:round;stroke-miterlimit:2;"><g><path d="M100.269,12.573l-2.982,0l-0,-0.913c-0,-0.427 -0.039,-0.7 -0.115,-0.817c-0.075,-0.117 -0.2,-0.174 -0.377,-0.174c-0.193,-0 -0.338,0.078 -0.437,0.236c-0.099,0.157 -0.148,0.393 -0.148,0.713c-0,0.412 0.057,0.721 0.169,0.93c0.109,0.205 0.411,0.457 0.908,0.754c1.423,0.851 2.321,1.551 2.69,2.095c0.372,0.543 0.557,1.42 0.557,2.628c0,0.879 -0.104,1.527 -0.31,1.946c-0.205,0.416 -0.601,0.765 -1.191,1.046c-0.588,0.284 -1.273,0.424 -2.056,0.424c-0.859,0 -1.59,-0.164 -2.199,-0.489c-0.606,-0.325 -1.001,-0.739 -1.191,-1.241c-0.188,-0.505 -0.281,-1.221 -0.281,-2.144l-0,-0.809l2.982,-0l-0,1.501c-0,0.463 0.041,0.76 0.124,0.892c0.084,0.133 0.232,0.198 0.445,0.198c0.214,0 0.372,-0.083 0.477,-0.252c0.104,-0.167 0.156,-0.417 0.156,-0.745c-0,-0.725 -0.099,-1.202 -0.297,-1.423c-0.206,-0.224 -0.705,-0.598 -1.501,-1.124c-0.797,-0.528 -1.322,-0.913 -1.582,-1.152c-0.258,-0.24 -0.474,-0.57 -0.643,-0.992c-0.169,-0.421 -0.255,-0.96 -0.255,-1.616c0,-0.944 0.12,-1.636 0.362,-2.074c0.242,-0.437 0.629,-0.778 1.168,-1.025c0.539,-0.247 1.187,-0.369 1.949,-0.369c0.833,-0 1.54,0.135 2.128,0.403c0.586,0.271 0.974,0.609 1.164,1.02c0.189,0.409 0.286,1.103 0.286,2.084l-0,0.489Zm-7.275,-3.747l-1.835,5.577l2.006,6.773l-3.31,-0l-1.303,-5.293l-0,5.293l-3.216,-0l-0,-12.35l3.216,0l-0,4.799l1.444,-4.799l2.998,0Zm-11.751,7.947c-0.154,-1.4 -0.315,-3.133 -0.487,-5.201c-0.317,2.373 -0.518,4.106 -0.603,5.201l1.09,0Zm1.704,-7.947l1.837,12.35l-3.281,-0l-0.174,-2.217l-1.158,-0l-0.175,2.217l-3.322,-0l1.628,-12.35l4.645,0Zm-12.026,0l5.355,0l-0,2.467l-2.139,0l-0,2.358l1.998,-0l0,2.341l-1.998,0l-0,2.717l2.357,0l0,2.467l-5.573,-0l-0,-12.35Zm-5.192,2.108l0,2.748c0.36,-0 0.609,-0.05 0.753,-0.148c0.143,-0.099 0.216,-0.422 0.216,-0.966l-0,-0.679c-0,-0.393 -0.071,-0.65 -0.209,-0.773c-0.138,-0.122 -0.393,-0.182 -0.76,-0.182m-3.216,-2.108l2.272,0c1.514,0 2.54,0.058 3.076,0.175c0.535,0.117 0.973,0.416 1.311,0.898c0.338,0.478 0.507,1.246 0.507,2.297c0,0.96 -0.119,1.606 -0.359,1.936c-0.236,0.33 -0.707,0.528 -1.41,0.593c0.635,0.159 1.064,0.37 1.283,0.635c0.218,0.263 0.354,0.508 0.406,0.729c0.054,0.221 0.08,0.83 0.08,1.826l0,3.261l-2.981,-0l-0,-4.109c-0,-0.661 -0.053,-1.069 -0.157,-1.228c-0.101,-0.159 -0.372,-0.237 -0.812,-0.237l0,5.574l-3.216,-0l0,-12.35Zm-6.213,0l5.433,0l-0,2.467l-2.217,0l-0,2.358l1.967,-0l0,2.341l-1.967,0l-0,5.184l-3.216,-0l-0,-12.35Zm-1.15,5.387l-3.216,-0l-0,-2.144c-0,-0.625 -0.034,-1.013 -0.102,-1.169c-0.067,-0.153 -0.218,-0.231 -0.45,-0.231c-0.26,-0 -0.427,0.094 -0.497,0.281c-0.07,0.19 -0.107,0.596 -0.107,1.22l0,5.73c0,0.601 0.037,0.991 0.107,1.176c0.07,0.182 0.229,0.273 0.474,0.273c0.236,0 0.393,-0.091 0.465,-0.276c0.073,-0.182 0.11,-0.614 0.11,-1.293l-0,-1.553l3.216,-0l-0,0.481c-0,1.28 -0.091,2.188 -0.271,2.722c-0.179,0.536 -0.58,1.004 -1.197,1.408c-0.619,0.403 -1.379,0.603 -2.284,0.603c-0.94,0 -1.715,-0.169 -2.327,-0.51c-0.608,-0.341 -1.014,-0.812 -1.212,-1.415c-0.198,-0.604 -0.297,-1.51 -0.297,-2.72l0,-3.606c0,-0.89 0.032,-1.556 0.091,-2.001c0.063,-0.445 0.242,-0.874 0.547,-1.285c0.302,-0.411 0.72,-0.737 1.257,-0.973c0.536,-0.237 1.152,-0.354 1.85,-0.354c0.944,-0 1.725,0.182 2.341,0.549c0.614,0.364 1.018,0.819 1.213,1.366c0.192,0.546 0.289,1.394 0.289,2.547l-0,1.174Zm-13.981,-5.387l5.355,0l0,2.467l-2.139,0l0,2.358l1.999,-0l-0,2.341l-1.999,0l0,2.717l2.358,0l-0,2.467l-5.574,-0l0,-12.35Zm-2.722,0l0,9.883l1.936,0l0,2.467l-5.152,-0l0,-12.35l3.216,0Zm-9.702,0l5.354,0l0,2.467l-2.138,0l-0,2.358l1.998,-0l-0,2.341l-1.998,0l-0,2.717l2.357,0l0,2.467l-5.573,-0l-0,-12.35Z" style="fill:#fff;"/><path d="M25.663,21.647c0,0.207 -0.11,0.398 -0.289,0.502l-11.529,6.666c-0.18,0.104 -0.401,0.104 -0.581,0l-11.529,-6.666c-0.179,-0.104 -0.289,-0.295 -0.289,-0.502l-0,-13.274c-0,-0.207 0.11,-0.398 0.289,-0.502l11.516,-6.659c0.188,-0.108 0.419,-0.108 0.607,-0l11.516,6.659c0.179,0.104 0.289,0.295 0.289,0.502l0,13.274Zm0.667,-14.353l-12.472,-7.213c-0.188,-0.108 -0.419,-0.108 -0.607,0l-12.472,7.213c-0.194,0.112 -0.313,0.318 -0.313,0.542l-0,14.348c-0,0.224 0.119,0.431 0.313,0.542l12.462,7.207c0.194,0.112 0.433,0.112 0.627,-0l12.462,-7.207c0.194,-0.111 0.313,-0.318 0.313,-0.542l-0,-14.348c-0,-0.224 -0.119,-0.43 -0.313,-0.542" style="fill:#fff;"/><path d="M14.558,2.816l9.727,5.625c0.209,0.12 0.337,0.344 0.337,0.585l0,1.23c0,0.465 -0.458,0.791 -0.898,0.638l-5.042,-1.751c-0.439,-0.153 -0.898,0.174 -0.898,0.639l-0,2.547c-0,0.344 0.257,0.633 0.599,0.672l5.641,0.651c0.341,0.04 0.598,0.329 0.598,0.672l0,1.363c0,0.344 -0.257,0.633 -0.598,0.672l-5.641,0.651c-0.342,0.04 -0.599,0.329 -0.599,0.672l-0,7.258c-0,0.241 -0.129,0.464 -0.338,0.585l-3.553,2.055c-0.21,0.121 -0.468,0.121 -0.677,0l-10.392,-6.009c-0.209,-0.121 -0.338,-0.344 -0.338,-0.586l-0,-11.959c-0,-0.241 0.129,-0.465 0.338,-0.585l8.811,-5.096c0.404,-0.233 0.909,0.058 0.909,0.524l-0,3.363c-0,0.288 -0.183,0.544 -0.455,0.639l-6.828,2.371c-0.272,0.095 -0.454,0.351 -0.454,0.639l-0,1.814c-0,0.404 0.352,0.718 0.754,0.671l6.229,-0.719c0.401,-0.046 0.754,0.268 0.754,0.672l-0,3.373c-0,0.405 -0.353,0.719 -0.754,0.672l-6.229,-0.719c-0.402,-0.047 -0.754,0.267 -0.754,0.672l-0,1.813c-0,0.288 0.182,0.545 0.454,0.639l7.384,2.565c0.44,0.153 0.899,-0.174 0.899,-0.639l-0,-18.293c-0,-0.521 0.564,-0.846 1.014,-0.586" style="fill:#fff;"/></g></svg>